<svg width="26" height="25" viewBox="0 0 26 25" fill="none" xmlns="http://www.w3.org/2000/svg">
<path d="M24.6582 23.5346C22.6118 21.5241 20.5295 19.4777 18.4831 17.4672C18.4113 17.3954 18.3754 17.3595 18.3754 17.3236C18.8422 16.6415 19.3448 15.9593 19.7397 15.2772C20.9962 13.0872 21.3194 10.7177 20.8167 8.24051C20.4218 6.26593 19.4884 4.57855 18.0882 3.14249C16.5445 1.56282 14.7135 0.449876 12.5235 0.162664C11.2669 -0.016844 10.1899 -0.088647 8.50251 0.162664C6.31251 0.521679 4.44563 1.59873 2.90187 3.17839C1.50171 4.57855 0.604167 6.26593 0.20925 8.20461C0.137446 8.59953 0.0656434 9.03034 0.0297418 9.42526C-0.0420613 10.4664 0.0297418 11.2562 0.101545 11.8666C0.316954 14.0207 1.3581 15.8516 2.86596 17.3954C4.87645 19.4777 7.31776 20.5547 10.1899 20.6624C12.3799 20.7342 14.3904 20.1957 16.2213 19.0469C16.5445 18.8315 16.8676 18.6161 17.1907 18.3647C17.2625 18.4365 17.2984 18.4724 17.3702 18.5443C19.4525 20.5906 21.4989 22.6011 23.5812 24.6475C24.012 25.0783 24.5146 25.1142 24.8377 24.7552C25.1608 24.4321 25.089 23.9654 24.6582 23.5346ZM15.1802 17.7903C12.3081 19.5136 9.25644 19.5854 6.27661 18.0416C3.83531 16.7851 2.29154 14.7387 1.75302 12.0102C1.21449 9.31756 1.86072 6.87625 3.6199 4.75806C5.05596 3.03479 6.92284 1.99364 9.18464 1.67053C11.4105 1.34741 13.5287 1.77823 15.4315 3.03479C17.5497 4.43495 18.8781 6.40953 19.3089 8.95854C19.3807 9.42526 19.4166 9.89198 19.4525 10.2869C19.3089 13.5898 17.9446 16.1388 15.1802 17.7903Z" fill="white"/>
</svg>
