<svg width="68" height="56" viewBox="0 0 68 56" fill="none" xmlns="http://www.w3.org/2000/svg">
<g id="Frame" clip-path="url(#clip0_20_506)">
<path id="Vector" d="M64.9091 23.719H61.3223C59.7025 23.719 58.4297 24.9917 58.4297 26.6116V27.3058H52.4132C50.0992 22.2149 45.8182 18.3967 40.6116 16.5455V10.9917H36.9091V9.4876H48.8264C50.3306 9.4876 51.4876 8.21488 51.4876 6.59504C51.4876 4.97521 50.3306 3.70248 48.8264 3.70248H36.7934V2.66116C36.7934 1.15702 35.5207 0 33.9008 0C32.281 0 31.0083 1.15702 31.0083 2.66116V3.70248H19.0909C17.5868 3.70248 16.4298 4.97521 16.4298 6.59504C16.4298 8.21488 17.5868 9.4876 19.0909 9.4876H31.0083V10.9917H27.3058V16.6612C21.9835 18.5124 17.8182 22.3306 15.5041 27.4215H9.4876V26.6116C9.4876 24.9917 8.21488 23.719 6.59504 23.719H2.89256C1.27273 23.719 0 24.9917 0 26.6116V44.8926C0 46.5124 1.27273 47.7851 2.89256 47.7851H6.59504C8.21488 47.7851 9.4876 46.5124 9.4876 44.8926V44.1983H15.5041C18.7438 51.3719 25.9174 56 33.9008 56C41.8843 56 49.0578 51.3719 52.2975 44.1983H58.314V44.8926C58.314 46.5124 59.5868 47.7851 61.2066 47.7851H64.9091C66.5289 47.7851 67.8017 46.5124 67.8017 44.8926V26.6116C67.8017 24.9917 66.5289 23.719 64.9091 23.719ZM19.0909 7.28926C18.8595 7.28926 18.6281 6.94215 18.6281 6.59504C18.6281 6.13223 18.8595 5.90083 19.0909 5.90083H33.2066V2.66116C33.2066 2.42975 33.5537 2.19835 33.9008 2.19835C34.3636 2.19835 34.595 2.42975 34.595 2.66116V5.78512H48.7107C48.9421 5.78512 49.1735 6.13223 49.1735 6.47934C49.1735 6.94215 48.9421 7.17355 48.7107 7.17355H34.7107V10.876H33.2066V7.28926H19.0909ZM7.28926 44.8926C7.28926 45.2397 6.94215 45.5868 6.59504 45.5868H2.89256C2.54545 45.5868 2.19835 45.2397 2.19835 44.8926V26.6116C2.19835 26.2645 2.54545 25.9174 2.89256 25.9174H6.59504C6.94215 25.9174 7.28926 26.2645 7.28926 26.6116V27.3058V44.0826V44.8926ZM50.9091 42L50.6777 42.6942C47.9008 49.5207 41.3058 53.9174 34.0165 53.9174C26.7273 53.9174 20.1322 49.5207 17.3554 42.6942L17.124 42H9.4876V29.5041H17.0083L17.2397 28.8099C19.3223 23.719 23.4876 19.9008 28.8099 18.3967L29.6198 18.1653V13.0744H31.124H36.9091H38.4132V18.1653L39.2231 18.3967C44.4298 19.9008 48.7107 23.719 50.7934 28.8099L51.0248 29.5041H58.5454V41.8843H50.9091V42ZM65.719 44.8926C65.719 45.2397 65.3719 45.5868 65.0248 45.5868H61.3223C60.9752 45.5868 60.6281 45.2397 60.6281 44.8926V44.1983V27.3058V26.6116C60.6281 26.2645 60.9752 25.9174 61.3223 25.9174H65.0248C65.3719 25.9174 65.719 26.2645 65.719 26.6116V44.8926Z" fill="#0094D9"/>
</g>
<defs>
<clipPath id="clip0_20_506">
<rect width="67.8017" height="56" fill="white"/>
</clipPath>
</defs>
</svg>
