<svg width="57" height="56" viewBox="0 0 57 56" fill="none" xmlns="http://www.w3.org/2000/svg">
<g id="Frame" clip-path="url(#clip0_20_510)">
<path id="Vector" d="M0.252272 55.2432C0.504525 55.6216 1.00903 55.8739 1.38741 55.8739H55.4955C56.2523 55.8739 56.8829 55.2432 56.8829 54.4865C56.8829 54.2342 56.7568 53.8559 56.6307 53.7297L29.6397 0.756757C29.3874 0.252252 28.8829 0 28.3784 0C27.8739 0 27.3694 0.252252 27.1171 0.756757L0.126146 53.982C-0.126106 54.3604 2.02414e-05 54.8649 0.252272 55.2432ZM28.3784 4.41441L53.0991 53.2252H3.65768L28.3784 4.41441ZM28.7568 19.045C27.8739 18.1622 27.1171 17.4054 26.6126 16.7748C26.3604 16.3964 25.8559 16.2703 25.4775 16.5225C25.0991 16.6486 24.8469 17.1532 24.8469 17.5315L24.973 18.2883C25.2252 20.5586 25.4775 23.3333 25.0991 24.973C24.4685 27.3694 22.955 29.009 21.4415 30.7748C20.1802 32.1622 18.7928 33.6757 17.9099 35.5676C14.5045 42.7568 20.5586 47.1712 24.5946 50.0721C24.7207 50.1982 24.973 50.3243 25.2252 50.3243H33.6757C34.1802 50.3243 34.5586 50.0721 34.6847 49.5676C34.937 48.5586 35.4415 47.5495 35.8198 46.6667C42.5045 32.6667 33.5496 23.8378 28.7568 19.045ZM30.5225 47.5495H27.1171C24.5946 44.6486 23.964 42.2523 25.0991 39.982C25.4775 39.0991 26.1081 38.3423 26.8649 37.7117C27.8739 36.5766 28.7568 35.5676 29.3874 33.8018C29.5135 33.1712 29.6397 32.4144 29.7658 31.5315C32.0361 34.1802 34.937 38.2162 31.5316 45.7838C31.027 46.2883 30.7748 46.9189 30.5225 47.5495ZM33.8018 45.6577C33.4234 46.4144 33.0451 47.2973 32.6667 48.1802H32.4144C32.6667 47.6757 32.9189 47.045 33.0451 46.6667C37.3334 37.3333 32.7928 32.2883 30.3964 29.6396C29.8919 29.1351 29.5135 28.6306 29.2613 28.2523C29.009 27.8739 28.5045 27.7477 28.1261 27.8739C27.7478 28 27.3694 28.3784 27.3694 28.8829V29.3874C27.3694 30.7748 27.3694 32.4144 27.1171 33.1712C26.7388 34.4324 25.982 35.3153 25.0991 36.3243C24.3424 37.0811 23.5856 37.964 23.0811 39.0991C21.8198 41.6216 22.1982 44.3964 24.2162 47.2973C20.0541 44.1441 17.2793 41.1171 19.5496 36.3243C20.3063 34.6847 21.4415 33.4234 22.7027 32.036C24.4685 30.1441 26.2343 28.1261 26.8649 25.3514C27.2433 23.964 27.1171 22.0721 26.991 20.1802C27.1171 20.3063 27.1171 20.3063 27.2433 20.4324C32.1622 25.2252 39.982 33.045 33.8018 45.6577ZM34.937 51.4595C34.937 51.964 34.4325 52.4685 33.9279 52.4685H24.8469C24.3424 52.4685 23.8379 51.964 23.8379 51.4595C23.8379 50.955 24.3424 50.4504 24.8469 50.4504H33.9279C34.4325 50.4504 34.937 50.955 34.937 51.4595Z" fill="#0094D9"/>
</g>
<defs>
<clipPath id="clip0_20_510">
<rect width="56.8829" height="56" fill="white"/>
</clipPath>
</defs>
</svg>
