<svg width="58" height="56" viewBox="0 0 58 56" fill="none" xmlns="http://www.w3.org/2000/svg">
<g id="Frame" clip-path="url(#clip0_20_502)">
<path id="Vector" d="M0.863436 5.55066V27.3833C0.863436 28.1233 1.48018 28.6167 2.09692 28.6167C2.71366 28.6167 3.3304 28 3.3304 27.3833V6.1674L18.6255 9.62114L17.022 22.8194L14.0617 47.2423H3.45374C2.71366 47.2423 2.22026 47.859 2.22026 48.4758V54.6432C2.22026 55.3833 2.837 55.8766 3.45374 55.8766H47.7357C48.4758 55.8766 48.9692 55.2599 48.9692 54.6432V48.4758C48.9692 47.7357 48.3524 47.2423 47.7357 47.2423H35.5242L31.3304 12.3348L45.7621 15.5418L46.3788 22.4493C46.3788 22.9427 46.8722 23.4361 47.3656 23.5595L48.4758 23.8062V38.7313C48.4758 39.4714 49.0925 39.9648 49.7092 39.9648C50.326 39.9648 50.9427 39.348 50.9427 38.7313V24.5463L51.3128 24.6696C51.4361 24.6696 51.5595 24.6696 51.5595 24.6696C52.0529 24.6696 52.4229 24.4229 52.6696 24.0529L57.4802 15.2952C57.6035 15.0485 57.6035 14.8018 57.6035 14.5551L56.6167 7.52423C56.4934 7.03083 56.2467 6.66079 55.7533 6.53744L51.9295 5.42731C51.4361 5.30396 50.9427 5.42731 50.5727 5.9207L47.2423 10.3612L30.467 6.66079C29.6035 4.31718 27.3833 2.59031 24.7929 2.59031C23.0661 2.59031 21.5859 3.33039 20.4758 4.44053L2.34361 -1.96882e-06C1.72687 -0.12335 0.986784 0.246694 0.863436 0.986782L0 4.07048C0 4.44053 0 4.68722 0.123348 5.05727C0.370044 5.30396 0.61674 5.42731 0.863436 5.55066ZM28.8634 12.7048L30.3436 25.2863L19.7357 21.9559L20.8458 12.7048C21.9559 13.6916 23.3128 14.185 24.7929 14.185C26.3965 14.185 27.7533 13.6916 28.8634 12.7048ZM19.3656 24.5463L28.9868 27.5066L18.2555 34.2907L19.3656 24.5463ZM30.837 29.3568L32.1938 41.1982L19.489 36.511L30.837 29.3568ZM46.3788 53.4097H4.68722V49.7092H46.3788V53.4097ZM16.652 47.2423L17.7621 38.4846L32.5639 44.0352L32.9339 47.2423H16.652ZM47.489 12.7048C47.9824 12.8282 48.4758 12.5815 48.7225 12.2115L52.0529 7.77092L54.2731 8.51101L55.0132 14.4317L50.9427 22.0793L48.8458 21.5859L48.1057 14.4317C48.1057 13.9383 47.6123 13.4449 47.1189 13.3216L30.9604 9.74449L30.837 9.0044L47.489 12.7048ZM24.7929 4.81057C26.5198 4.81057 27.8766 6.04405 28.1233 7.64757C28.1233 7.89427 28.2467 8.14097 28.2467 8.26431C28.2467 8.51101 28.2467 8.63436 28.2467 8.88105C28.2467 9.0044 28.2467 9.0044 28.2467 9.12775V9.2511C28.1233 9.4978 28.1233 9.74449 28 9.99119C27.3833 10.978 26.2731 11.7181 25.0396 11.7181C23.1894 11.7181 21.7092 10.3612 21.5859 8.51101C21.5859 8.38766 21.5859 8.38766 21.5859 8.26431C21.5859 8.01762 21.5859 7.89427 21.7092 7.64757C21.7092 7.52423 21.7093 7.52423 21.8326 7.40088C21.8326 7.27753 21.8326 7.15418 21.9559 7.15418C21.9559 7.03083 22.0793 6.90749 22.0793 6.78414C22.0793 6.78414 22.0793 6.66079 22.2026 6.66079C22.326 6.53744 22.326 6.41409 22.4493 6.29075C22.696 5.42731 23.6828 4.81057 24.7929 4.81057ZM2.96035 2.71365L19.1189 6.29075C18.9956 6.53744 18.9956 6.78414 18.8722 7.03083L2.837 3.45374L2.96035 2.71365Z" fill="#0094D9"/>
</g>
<defs>
<clipPath id="clip0_20_502">
<rect width="57.6035" height="56" fill="white"/>
</clipPath>
</defs>
</svg>
