<svg width="33" height="56" viewBox="0 0 33 56" fill="none" xmlns="http://www.w3.org/2000/svg">
<g id="Frame" clip-path="url(#clip0_20_508)">
<path id="Vector" d="M16.1238 56C24.9659 56 32.2477 48.7183 32.2477 39.8762C32.2477 31.5542 17.8576 2.0805 17.3375 0.866873C17.1641 0.346749 16.644 0 16.1238 0C15.6037 0 15.0836 0.346749 14.9102 0.693498C14.3901 2.0805 0 31.3808 0 39.8762C0 48.7183 7.28173 56 16.1238 56ZM16.1238 4.33437C21.3251 15.257 29.6471 33.9814 29.6471 39.7028C29.6471 47.1579 23.579 53.226 16.1238 53.226C8.66873 53.226 2.60062 47.1579 2.60062 39.7028C2.60062 34.1548 10.9226 15.4303 16.1238 4.33437ZM21.3251 49.065C20.9783 48.3715 21.1517 47.678 21.6718 47.1579C24.4458 45.2508 26.0062 42.3034 26.0062 39.0093C26.0062 38.3158 25.8328 37.1022 24.9659 34.5015C24.7926 33.808 25.1393 33.1146 25.8328 32.7678C26.5263 32.5944 27.2198 32.9412 27.5666 33.6347C28.2601 36.0619 28.6068 37.7957 28.6068 39.0093C28.6068 43.1703 26.5263 46.9845 23.0588 49.4118C22.8855 49.5851 22.5387 49.5851 22.3653 49.5851C21.8452 49.7585 21.4985 49.5851 21.3251 49.065Z" fill="#0094D9"/>
</g>
<defs>
<clipPath id="clip0_20_508">
<rect width="32.2477" height="56" fill="white"/>
</clipPath>
</defs>
</svg>
