<svg width="79" height="56" viewBox="0 0 79 56" fill="none" xmlns="http://www.w3.org/2000/svg">
<g id="Frame" clip-path="url(#clip0_20_504)">
<path id="Vector" d="M77.0981 53.6433C75.1903 53.6433 74.4047 52.9699 73.2825 51.9599C72.9458 51.6232 72.4969 51.2866 72.048 51.0621L74.4047 42.7575C74.5169 42.4208 74.4047 42.0842 74.1803 41.7475C73.9558 41.4108 73.6191 41.2986 73.2825 41.2986H68.0079V38.493C68.0079 37.8196 67.4468 37.3707 66.8857 37.3707H64.8656L68.4568 27.3828L70.5891 21.5471L72.048 36.4729C72.1602 37.0341 72.6091 37.483 73.1702 37.483H73.2825C73.9558 37.3707 74.4047 36.8096 74.2925 36.2485L72.1602 14.3647C72.1602 14.2525 72.1602 14.1403 72.048 14.1403L71.8236 12.1202C71.7113 11.5591 71.3747 11.2224 70.9258 11.1102C70.4769 10.998 69.9157 11.3347 69.6913 11.7836L57.3466 37.3707H54.0921C53.4187 37.3707 52.9698 37.9319 52.9698 38.493V41.2986H51.6232V35.4629C51.6232 34.7896 51.062 34.3407 50.5009 34.3407H46.3486C45.6753 34.3407 45.2264 34.9018 45.2264 35.4629V41.2986H43.8797L42.0841 1.12224C42.0841 0.561122 41.523 0 40.9618 0H37.034C36.4729 0 35.9117 0.448898 35.9117 1.12224L34.1161 41.4108H33.1061V29.9639C33.1061 29.2906 32.545 28.8417 31.9839 28.8417H25.5871C24.9137 28.8417 24.4648 29.4028 24.4648 29.9639V41.2986H23.567V37.2585C23.567 36.5852 23.0059 36.1363 22.4448 36.1363H21.7715V33.3307C21.7715 32.6573 21.2103 32.2084 20.6492 32.2084H17.2825L12.3446 24.6894L6.8456 16.2725L3.81554 11.5591C3.59109 11.2224 3.14219 10.998 2.6933 10.998C2.2444 10.998 1.90772 11.3347 1.7955 11.7836L0.112133 16.7214C0.112133 16.8337 -9.10573e-05 17.0581 0.112133 17.1703C0.112133 17.1703 0.112133 17.1703 0.112133 17.2826V39.503C0.112133 40.1764 0.673256 40.6253 1.23438 40.6253C1.90772 40.6253 2.35662 40.0641 2.35662 39.503V21.0982L9.31454 32.2084H7.7434C7.07005 32.2084 6.62115 32.7695 6.62115 33.3307V36.1363H4.71334C4.03999 36.1363 3.59109 36.6974 3.59109 37.2585V42.4208C3.59109 42.5331 3.59109 42.6453 3.59109 42.6453C3.59109 42.6453 3.59109 42.6453 3.59109 42.7575C3.59109 42.8697 3.59109 42.8697 3.70332 42.982L8.41674 51.511C8.19229 51.7355 7.96784 51.8477 7.85562 52.0721C6.73338 52.9699 5.9478 53.7555 4.03999 53.7555C3.36664 53.7555 2.91774 54.3166 2.91774 54.8778C2.91774 55.5511 3.47887 56 4.03999 56C6.73338 56 8.08007 54.8778 9.31454 53.7555C9.76344 53.4188 10.1001 53.0822 10.549 52.8577C10.6612 52.8577 10.6612 52.7455 10.7735 52.7455C10.7735 52.7455 10.8857 52.7455 10.8857 52.6333C10.9979 52.6333 11.1101 52.521 11.2224 52.521H11.3346C11.4468 52.521 11.559 52.4088 11.6713 52.4088C11.7835 52.4088 11.7835 52.4088 11.8957 52.4088C12.0079 52.4088 12.1201 52.4088 12.2324 52.2966C12.3446 52.2966 12.3446 52.2966 12.4568 52.2966C12.6813 52.2966 12.7935 52.2966 13.0179 52.2966C13.2424 52.2966 13.4668 52.2966 13.5791 52.2966C13.6913 52.2966 13.6913 52.2966 13.8035 52.2966C13.9157 52.2966 14.028 52.2966 14.1402 52.2966C14.2524 52.2966 14.2524 52.2966 14.3646 52.2966C14.4769 52.2966 14.4769 52.2966 14.5891 52.4088C14.7013 52.4088 14.7013 52.4088 14.8135 52.521C14.9258 52.521 15.038 52.6333 15.1502 52.6333C15.1502 52.6333 15.2624 52.6333 15.2624 52.7455C15.3747 52.7455 15.3747 52.8577 15.4869 52.8577L15.5991 52.9699C15.7113 52.9699 15.7113 53.0822 15.8236 53.0822C15.8236 53.0822 15.9358 53.0822 15.9358 53.1944C16.1602 53.4188 16.4969 53.6433 16.7214 53.8677C17.9558 54.8778 19.3025 56.1122 21.9959 56.1122C24.6893 56.1122 26.036 54.99 27.2704 53.8677C27.4949 53.6433 27.8316 53.4188 28.056 53.1944C28.1682 53.0822 28.2805 53.0822 28.3927 52.9699C28.3927 52.9699 28.5049 52.9699 28.5049 52.8577C28.6171 52.7455 28.7294 52.7455 28.8416 52.7455C28.8416 52.7455 28.9538 52.7455 28.9538 52.6333C29.066 52.521 29.1783 52.521 29.2905 52.521C29.4027 52.521 29.4027 52.521 29.5149 52.4088C29.6272 52.4088 29.6272 52.4088 29.7394 52.2966C29.8516 52.2966 29.8516 52.2966 29.9638 52.2966C30.0761 52.2966 30.1883 52.2966 30.3005 52.2966C30.4127 52.2966 30.4127 52.2966 30.525 52.2966C30.7494 52.2966 30.8616 52.2966 31.0861 52.2966C31.3105 52.2966 31.535 52.2966 31.6472 52.2966C31.7594 52.2966 31.7594 52.2966 31.8717 52.2966C31.9839 52.2966 32.0961 52.2966 32.2083 52.2966C32.3206 52.2966 32.3205 52.2966 32.4328 52.2966C32.545 52.2966 32.545 52.2966 32.6572 52.4088C32.7694 52.4088 32.7694 52.4088 32.8817 52.521C32.9939 52.521 33.1061 52.6333 33.2183 52.6333L33.3306 52.7455C33.4428 52.7455 33.4428 52.8577 33.555 52.8577L33.6672 52.9699C33.7795 52.9699 33.7795 53.0822 33.8917 53.0822C33.8917 53.0822 34.0039 53.0822 34.0039 53.1944C34.2284 53.4188 34.565 53.6433 34.7895 53.8677C36.024 54.8778 37.3706 56.1122 40.064 56.1122C42.7574 56.1122 44.1041 54.99 45.3386 53.8677C45.563 53.6433 45.8997 53.4188 46.1242 53.1944C46.1242 53.1944 46.2364 53.1944 46.2364 53.0822C46.3486 52.9699 46.3486 52.9699 46.4608 52.9699L46.5731 52.8577C46.6853 52.8577 46.6853 52.7455 46.7975 52.7455L46.9097 52.6333C47.0219 52.521 47.1342 52.521 47.2464 52.521C47.3586 52.521 47.3586 52.521 47.4708 52.4088C47.5831 52.4088 47.5831 52.4088 47.6953 52.2966C47.8075 52.2966 47.8075 52.2966 47.9197 52.2966C48.032 52.2966 48.1442 52.2966 48.2564 52.2966C48.3686 52.2966 48.3686 52.2966 48.4809 52.2966C48.7053 52.2966 48.8175 52.2966 49.042 52.2966C49.2664 52.2966 49.4909 52.2966 49.6031 52.2966C49.7153 52.2966 49.7153 52.2966 49.8276 52.2966C49.9398 52.2966 50.052 52.2966 50.1642 52.2966C50.2765 52.2966 50.2765 52.2966 50.3887 52.2966C50.5009 52.2966 50.5009 52.2966 50.6131 52.4088C50.7254 52.4088 50.7254 52.4088 50.8376 52.521C50.9498 52.521 51.062 52.6333 51.1743 52.6333C51.2865 52.6333 51.2865 52.7455 51.2865 52.7455C51.3987 52.7455 51.3987 52.8577 51.5109 52.8577C51.6232 52.8577 51.6231 52.9699 51.7354 52.9699C51.8476 52.9699 51.8476 53.0822 51.9598 53.0822L52.0721 53.1944C52.2965 53.4188 52.6332 53.6433 52.8576 53.8677C54.0921 54.8778 55.4388 56.1122 58.1322 56.1122C60.8256 56.1122 62.1723 54.99 63.4067 53.8677C63.6312 53.6433 63.9678 53.4188 64.1923 53.1944C64.1923 53.1944 64.3045 53.1944 64.3045 53.0822C64.4167 52.9699 64.4167 52.9699 64.529 52.9699L64.6412 52.8577C64.7534 52.8577 64.7534 52.7455 64.8656 52.7455C64.8656 52.7455 64.9779 52.7455 64.9779 52.6333C65.0901 52.521 65.2023 52.521 65.3145 52.521C65.4268 52.521 65.4268 52.521 65.539 52.4088C65.6512 52.4088 65.6512 52.4088 65.7634 52.2966C65.8757 52.2966 65.8757 52.2966 65.9879 52.2966C66.1001 52.2966 66.2123 52.2966 66.3246 52.2966C66.4368 52.2966 66.4368 52.2966 66.549 52.2966C66.7735 52.2966 66.8857 52.2966 67.1101 52.2966C67.3346 52.2966 67.559 52.2966 67.7835 52.2966C68.3446 52.4088 68.9057 52.521 69.3546 52.7455C69.9157 53.0822 70.3646 53.4188 70.9258 53.8677C72.1602 54.8778 73.5069 56.1122 76.2003 56.1122C76.8737 56.1122 77.3226 55.5511 77.3226 54.99C78.2204 54.2044 77.6592 53.6433 77.0981 53.6433ZM63.1823 30.5251L64.3045 32.0962L63.2945 34.7896L61.9478 32.994L63.1823 30.5251ZM65.2023 26.2605L65.9879 27.2705L65.2023 29.515L64.3045 28.1683L65.2023 26.2605ZM67.559 21.4349L67.8957 21.996L66.8857 24.6894L66.3246 23.9038L67.559 21.4349ZM69.6913 16.8337L68.7935 19.4148L68.6813 19.0782L69.6913 16.8337ZM60.9378 35.3507L62.3967 37.483H59.9278L60.9378 35.3507ZM55.2143 39.7275H65.7634V40.7375H55.2143V39.7275ZM47.4708 36.5852H49.3787V40.513H47.4708V36.5852ZM37.5951 13.8036H40.2885L41.523 40.7375H36.4729L37.5951 13.8036ZM40.1763 11.5591H37.7073L37.8195 8.97796H40.064L40.1763 11.5591ZM39.8396 2.24449L40.064 6.73347H38.044L38.1562 2.24449H39.8396ZM26.7093 31.0862H30.8616V40.513H26.7093V31.0862ZM8.08007 26.0361L8.97787 23.6794L10.1001 25.475L9.20231 27.7194L8.08007 26.0361ZM5.27446 21.6593L6.17225 19.5271L7.2945 21.3226L6.50893 23.5671L5.27446 21.6593ZM3.14219 14.8136L4.60111 17.0581L3.81554 19.1904L2.46885 16.9459L3.14219 14.8136ZM10.6612 30.1884L11.559 27.9439L14.3646 32.3206H12.0079L10.6612 30.1884ZM8.86564 34.5651H19.4147V35.5751H8.86564V34.5651ZM5.83558 38.3808H21.2103V41.2986H5.83558V38.3808ZM10.4368 50.3888L6.62115 43.6553H22.3326H71.7113L69.9157 50.1643C69.6913 50.0521 69.3546 50.0521 69.1302 50.0521H69.0179C68.6813 50.0521 68.3446 49.9399 68.0079 49.9399C67.6712 49.9399 67.4468 49.9399 67.2224 49.9399C67.1101 49.9399 66.9979 49.9399 66.9979 49.9399C66.7735 49.9399 66.6612 49.9399 66.549 50.0521C66.4368 50.0521 66.3246 50.0521 66.3246 50.1643C66.1001 50.1643 65.8757 50.2766 65.7634 50.3888C65.6512 50.3888 65.539 50.501 65.539 50.501C65.4268 50.501 65.3145 50.6132 65.2023 50.6132C65.0901 50.6132 65.0901 50.7255 64.9779 50.7255C64.8656 50.8377 64.6412 50.9499 64.529 50.9499L64.4167 51.0621C64.3045 51.0621 64.3045 51.1743 64.1923 51.1743H54.0921L53.9799 51.0621C53.8676 51.0621 53.8676 50.9499 53.7554 50.9499C53.6432 50.8377 53.4187 50.7255 53.3065 50.7255C53.1943 50.7255 53.0821 50.6132 53.0821 50.6132C52.9698 50.6132 52.8576 50.501 52.7454 50.501C52.6332 50.501 52.521 50.3888 52.4087 50.3888C52.1843 50.2766 52.0721 50.2766 51.8476 50.1643C51.7354 50.1643 51.6232 50.1643 51.5109 50.0521C51.3987 50.0521 51.1743 49.9399 51.062 49.9399C50.9498 49.9399 50.8376 49.9399 50.7254 49.9399C50.5009 49.9399 50.1642 49.9399 49.9398 49.9399C49.7153 49.9399 49.3787 49.9399 49.1542 49.9399C49.042 49.9399 48.9298 49.9399 48.8175 49.9399C48.7053 49.9399 48.4809 49.9399 48.3686 50.0521C48.2564 50.0521 48.1442 50.0521 48.032 50.1643C47.8075 50.1643 47.6953 50.2766 47.4708 50.3888C47.3586 50.3888 47.2464 50.501 47.1342 50.501C47.0219 50.501 46.9097 50.6132 46.7975 50.6132C46.6853 50.6132 46.5731 50.7255 46.5731 50.7255C46.4608 50.8377 46.2364 50.8377 46.1242 50.9499C46.0119 50.9499 46.0119 51.0621 45.8997 51.0621L45.7875 51.1743H35.6873L35.5751 51.0621C35.4628 51.0621 35.4628 50.9499 35.3506 50.9499C35.2384 50.8377 35.0139 50.8377 34.9017 50.7255C34.7895 50.7255 34.6773 50.6132 34.6773 50.6132C34.565 50.6132 34.4528 50.501 34.3406 50.501C34.2284 50.501 34.1161 50.3888 34.0039 50.3888C33.7795 50.2766 33.6672 50.2766 33.4428 50.1643C33.3306 50.1643 33.2183 50.1643 33.1061 50.0521C32.9939 50.0521 32.7694 49.9399 32.6572 49.9399C32.545 49.9399 32.4328 49.9399 32.3205 49.9399C32.0961 49.9399 31.7594 49.9399 31.535 49.9399C31.1983 49.9399 30.9739 49.9399 30.7494 49.9399C30.6372 49.9399 30.525 49.9399 30.525 49.9399C30.3005 49.9399 30.1883 49.9399 30.0761 50.0521C29.9638 50.0521 29.8516 50.0521 29.8516 50.1643C29.6272 50.1643 29.4027 50.2766 29.2905 50.3888C29.1783 50.3888 29.066 50.501 29.066 50.501C28.9538 50.501 28.8416 50.6132 28.7294 50.6132C28.6171 50.6132 28.6171 50.7255 28.5049 50.7255C28.3927 50.8377 28.1682 50.9499 28.056 50.9499L27.9438 51.0621C27.8316 51.0621 27.8316 51.1743 27.7193 51.1743H17.6191C17.6191 51.1743 17.5069 51.0621 17.3947 51.0621L17.2825 50.9499C17.1702 50.8377 16.9458 50.7255 16.8336 50.7255C16.7214 50.7255 16.7214 50.6132 16.6091 50.6132C16.4969 50.6132 16.3847 50.501 16.2725 50.501C16.1602 50.501 16.048 50.3888 15.9358 50.3888C15.7113 50.2766 15.5991 50.2766 15.3747 50.1643C15.2624 50.1643 15.1502 50.1643 15.038 50.0521C14.9258 50.0521 14.7013 49.9399 14.5891 49.9399C14.4769 49.9399 14.3646 49.9399 14.3646 49.9399C14.1402 49.9399 13.8035 49.9399 13.5791 49.9399C13.2424 49.9399 13.0179 49.9399 12.6813 49.9399C12.569 49.9399 12.4568 49.9399 12.4568 49.9399C12.3446 49.9399 12.1201 49.9399 12.0079 50.0521C11.8957 50.0521 11.7835 50.0521 11.6713 50.1643C11.559 50.1643 11.4468 50.2766 11.3346 50.2766C10.7735 50.2766 10.6612 50.2766 10.4368 50.3888ZM20.4248 53.4188H24.0159C23.567 53.6433 22.8937 53.7555 22.2203 53.7555C21.547 53.6433 20.9859 53.5311 20.4248 53.4188ZM38.7173 53.4188H42.3085C41.8596 53.6433 41.1863 53.7555 40.5129 53.7555C39.8396 53.6433 39.2785 53.5311 38.7173 53.4188ZM57.0099 53.4188H60.6011C60.1522 53.6433 59.4789 53.7555 58.8055 53.7555C58.0199 53.6433 57.4588 53.5311 57.0099 53.4188Z" fill="#0094D9"/>
</g>
<defs>
<clipPath id="clip0_20_504">
<rect width="78.2204" height="56" fill="white"/>
</clipPath>
</defs>
</svg>
