<svg width="226" height="56" viewBox="0 0 226 56" fill="none" xmlns="http://www.w3.org/2000/svg">
<g clip-path="url(#clip0_20_477)">
<path fill-rule="evenodd" clip-rule="evenodd" d="M0 56H9.31699V33.6883C9.31699 26.5289 13.1909 22.9492 18.3888 22.9492C23.979 22.9492 26.8722 26.4799 26.8722 32.2662V56H36.2872V33.4431C36.2872 26.3328 40.1611 22.9002 45.1629 22.9002C50.9492 22.9002 53.8914 26.627 53.8914 32.4623V55.951H63.4046V31.7268C63.4046 21.1839 57.9615 14.8581 47.0263 14.8581C41.2399 14.8581 36.5814 17.6042 33.7863 21.8214C31.3835 17.4081 27.0193 14.8581 20.6935 14.8581C15.7408 14.8581 11.7198 17.0158 9.21891 20.3503V15.6918H0V56Z" fill="white"/>
<path fill-rule="evenodd" clip-rule="evenodd" d="M112.539 24.028H119.405V39.1804C119.405 51.979 123.18 56 135.636 56H136.96V47.2224C129.8 47.2224 128.771 46.1436 128.771 39.0823V24.028H136.96V15.6918H128.771V3.18739L119.405 9.61121V15.6918H112.539V24.028ZM141.471 56H150.788V34.4729C150.788 27.5096 153.632 24.6165 159.026 24.6165C161.723 24.6165 163.243 25.303 164.616 26.1856L168.147 17.359C166.284 16.3293 164.028 15.6427 161.037 15.6427C156.035 15.6427 152.553 17.6532 150.69 21.6252V15.6918H141.471V56ZM183.545 56H194.921L204.483 42.5639L214.34 56H225.716L210.27 35.6007L224.736 15.6918H213.702L204.63 28.4904L195.461 15.6918H184.084L198.697 35.4536L183.545 56ZM171.138 56H180.504V15.6918H171.138V56Z" fill="white"/>
<path fill-rule="evenodd" clip-rule="evenodd" d="M87.3835 0C89.5412 9.90543 71.8879 19.6147 68.9457 30.2067C67.5236 35.3065 67.7688 39.965 69.6813 44.2312C72.2802 49.4291 76.5464 53.0578 82.4799 55.1664C86.5989 56.3923 92.1401 56.3433 96.1121 54.5779C100.771 52.4694 104.154 49.331 106.263 45.1629C108.028 41.338 108.469 36.7285 107.489 31.3835C106.753 28.7356 105.821 26.3818 104.694 24.3222C107.44 35.0613 102.977 49.8214 89.6883 48.2522C88.2172 37.4151 99.8879 32.5114 98.4168 22.4588C98.0736 19.1243 96.5044 15.5937 93.7093 11.8669C97.4851 33.1489 84 31.0893 82.5289 44.8687C64.2382 28.3433 101.604 12.1121 87.3835 0Z" fill="#0094D9"/>
<path fill-rule="evenodd" clip-rule="evenodd" d="M191.342 0.58844C193.99 0.58844 196.098 2.69702 196.098 5.34501C196.098 7.99299 193.99 10.1016 191.342 10.1016C188.694 10.1016 186.585 7.99299 186.585 5.34501C186.585 2.74606 188.694 0.58844 191.342 0.58844Z" fill="#00A551"/>
<path fill-rule="evenodd" clip-rule="evenodd" d="M175.355 0.58844C178.003 0.58844 180.112 2.69702 180.112 5.34501C180.112 7.99299 178.003 10.1016 175.355 10.1016C172.707 10.1016 170.599 7.99299 170.599 5.34501C170.599 2.74606 172.757 0.58844 175.355 0.58844Z" fill="#EC1C24"/>
<path fill-rule="evenodd" clip-rule="evenodd" d="M159.419 0.58844C162.067 0.58844 164.175 2.69702 164.175 5.34501C164.175 7.99299 162.067 10.1016 159.419 10.1016C156.771 10.1016 154.662 7.99299 154.662 5.34501C154.662 2.74606 156.771 0.58844 159.419 0.58844Z" fill="#0094D9"/>
</g>
<defs>
<clipPath id="clip0_20_477">
<rect width="225.667" height="56" fill="white"/>
</clipPath>
</defs>
</svg>
